<?xml version="1.0" encoding="UTF-8"?>
<svg width="30px" height="30px" viewBox="0 0 30 30" version="1.1" xmlns="http://www.w3.org/2000/svg" xmlns:xlink="http://www.w3.org/1999/xlink">
    <title>memo-icon</title>
    <g id="Design" stroke="none" stroke-width="1" fill="none" fill-rule="evenodd">
        <g id="Dashboard" transform="translate(-434, -868)">
            <g id="recent-section" transform="translate(414, 543)">
                <g id="files" transform="translate(0, 72)">
                    <g id="memo-icon" transform="translate(20, 253)">
                        <rect id="bg" fill="#4C52BC" x="0" y="0" width="30" height="30" rx="6"></rect>
                        <path d="M15,18 C14.4477153,18 14,17.5522847 14,17 L14,13 C14,12.4477153 14.4477153,12 15,12 C15.5522847,12 16,12.4477153 16,13 L16,17 C16,17.5522847 15.5522847,18 15,18 Z M19,8 C18.4477153,8 18,8.44771525 18,9 L18,21 C18,21.5522847 18.4477153,22 19,22 C19.5522847,22 20,21.5522847 20,21 L20,9 C20,8.44771525 19.5522847,8 19,8 Z M23,13 C22.4477153,13 22,13.4477153 22,14 L22,16 C22,16.5522847 22.4477153,17 23,17 C23.5522847,17 24,16.5522847 24,16 L24,14 C24,13.4477153 23.5522847,13 23,13 Z M6,14 L6,16 C6,16.5522847 6.44771525,17 7,17 C7.55228475,17 8,16.5522847 8,16 L8,14 C8,13.4477153 7.55228475,13 7,13 C6.44771525,13 6,13.4477153 6,14 Z M10,11 L10,19 C10,19.5522847 10.4477153,20 11,20 C11.5522847,20 12,19.5522847 12,19 L12,11 C12,10.4477153 11.5522847,10 11,10 C10.4477153,10 10,10.4477153 10,11 Z" id="memo" fill="#FFFFFF" fill-rule="nonzero" opacity="0.9"></path>
                    </g>
                </g>
            </g>
        </g>
    </g>
</svg>