<?xml version="1.0" encoding="UTF-8"?>
<svg width="30px" height="30px" viewBox="0 0 30 30" version="1.1" xmlns="http://www.w3.org/2000/svg" xmlns:xlink="http://www.w3.org/1999/xlink">
    <title>music-icon</title>
    <g id="Design" stroke="none" stroke-width="1" fill="none" fill-rule="evenodd">
        <g id="Dashboard" transform="translate(-434, -804)">
            <g id="recent-section" transform="translate(414, 543)">
                <g id="files" transform="translate(0, 72)">
                    <g id="music-icon" transform="translate(20, 189)">
                        <rect id="bg" fill="#4C52BC" x="0" y="0" width="30" height="30" rx="6"></rect>
                        <path d="M20,13.6288269 L20,14.6084294 C20,14.8231196 19.8320992,14.9971605 19.6249926,14.9971605 L18.8749933,14.9971605 C18.6678867,14.9971605 18.5,14.8231196 18.5,14.6084294 L18.5,14.3985145 C18.4818578,13.6180931 18.0489424,12.9120321 17.3749945,12.5637036 C17.2399947,12.4859573 17.1199948,12.3926619 17,12.307141 L17,19.3043015 C16.8723594,20.8976217 15.5393938,22.0928571 14,21.994321 C12.4497923,22.0922261 11.1121685,20.8789477 11,19.273203 C11.1121685,17.6674584 12.4497923,16.4541799 14,16.5520851 C14.5224175,16.5509518 15.0372466,16.6817036 15.5,16.9330416 L15.5,8.38873114 C15.5,8.17404086 15.6678892,8 15.8749958,8 L16.6249952,8 C16.8321018,8 17,8.17404086 17,8.38873114 L17,8.52089973 C16.9843165,9.30815587 17.3996876,10.0368312 18.0724939,10.4023584 C19.2553802,11.0094904 20.0027685,12.260555 20,13.6288269 L20,13.6288269 Z" id="music" fill="#FFFFFF" fill-rule="nonzero" opacity="0.89625186"></path>
                    </g>
                </g>
            </g>
        </g>
    </g>
</svg>